<svg xmlns="http://www.w3.org/2000/svg" viewBox="0 0 64 64" role="img" aria-label="Osservatorio Versilia">
  <rect x="2" y="2" width="60" height="60" rx="15" fill="#0F3654"/>
  <g fill="none" stroke-linecap="round" stroke-linejoin="round">
    <circle cx="23.5" cy="32" r="16.5" stroke="#FFFFFF" stroke-width="4.8"/>
    <path d="M36 29 44 45 58 18" stroke="#FFFFFF" stroke-width="5"/>
    <path d="M47 29 58 14" stroke="#58A28F" stroke-width="2.8"/>
  </g>
  <g fill="#9DB2C0">
    <rect x="15" y="34" width="4" height="7" rx=".7"/>
    <rect x="21" y="29" width="4" height="12" rx=".7"/>
    <rect x="27" y="23" width="4" height="18" rx=".7"/>
  </g>
  <path d="M11.5 41.5c5.1-4 10.5-5.2 15.2-3.7 3.3 1 5.9 3 9.1 3.6v4.2c-3.6-.5-6.6-2.3-9.8-3-4.4-1.1-9-.1-14.5 3.2Z" fill="#58A28F"/>
</svg>
