<svg xmlns="http://www.w3.org/2000/svg" viewBox="0 0 76 64" role="img" aria-labelledby="ov-title ov-desc">
  <title id="ov-title">Osservatorio Versilia</title>
  <desc id="ov-desc">Monogramma OV con grafico e profilo del territorio</desc>
  <g fill="none" stroke-linecap="round" stroke-linejoin="round">
    <circle cx="27" cy="32" r="22" stroke="#0F3654" stroke-width="6"/>
    <path d="M43 28 53 48 71 15" stroke="#0F3654" stroke-width="6"/>
    <path d="M57 27 70 9" stroke="#58A28F" stroke-width="3.2"/>
  </g>
  <g fill="#6F8FA3">
    <rect x="16" y="34" width="5.5" height="9" rx="1"/>
    <rect x="24" y="28" width="5.5" height="15" rx="1"/>
    <rect x="32" y="20" width="5.5" height="23" rx="1"/>
  </g>
  <path d="M10 43c7-5.5 14-7.2 20-5.3 4.4 1.4 8 4.1 12 4.7v5.1c-4.6-.5-8.7-3-13.1-4.1-5.7-1.5-11.7-.1-18.9 4.1Z" fill="#58A28F"/>
  <path d="M11.5 45.2c6.2-3.2 11.9-4.2 17.1-3 4.3 1 8.1 3.2 12.2 3.8" fill="none" stroke="#F7FAF8" stroke-width="1.8" stroke-linecap="round"/>
</svg>
