<svg xmlns="http://www.w3.org/2000/svg" viewBox="0 0 16 16" width="16" height="16" shape-rendering="crispEdges"><path fill="#ccb446" opacity="0.50" d="M5 0h1v1h-1zM4 3h1v1h-1z"/><path fill="#cdb649" opacity="0.50" d="M6 0h1v1h-1zM7 1h1v1h-1zM11 1h2v1h-2zM8 2h1v1h-1zM1 3h1v1h-1zM9 3h3v1h-3zM11 4h2v1h-2zM2 5h1v1h-1zM14 5h1v1h-1zM2 9h1v1h-1zM3 10h1v1h-1zM7 15h2v1h-2z"/><path fill="#cdb649" d="M7 0h1v1h-1zM7 2h1v1h-1zM2 3h2v1h-2zM8 3h1v1h-1zM13 3h2v1h-2zM2 4h1v1h-1zM8 4h3v1h-3zM7 10h1v1h-1zM7 11h2v1h-2zM7 12h2v1h-2zM7 13h2v1h-2zM7 14h2v1h-2z"/><path fill="#cfb649" opacity="0.50" d="M8 0h3v1h-3zM3 2h1v1h-1zM2 6h1v1h-1zM14 6h1v1h-1zM2 7h1v1h-1z"/><path fill="#c8aa31" opacity="0.50" d="M4 1h2v1h-2zM4 2h1v1h-1zM5 3h2v1h-2zM5 4h2v1h-2zM7 5h1v1h-1z"/><path fill="#cdb648" opacity="0.50" d="M12 2h1v1h-1zM4 4h1v1h-1zM14 4h1v1h-1zM3 11h1v1h-1z"/><path fill="#ccb647" opacity="0.50" d="M13 2h1v1h-1zM4 11h1v1h-1zM9 13h1v1h-1z"/><path fill="#cdb648" d="M7 3h1v1h-1zM12 3h1v1h-1zM8 5h1v1h-1zM2 8h1v1h-1z"/><path fill="#ccb446" d="M7 4h1v1h-1zM8 6h1v1h-1zM7 9h1v1h-1zM8 10h1v1h-1z"/><path fill="#c8aa31" d="M7 6h1v1h-1zM7 7h2v1h-2zM7 8h2v1h-2zM8 9h1v1h-1z"/></svg>